# xmcd CD database file
#
# Track frame offsets:
#	16125
#	32567
#	58145
#	84950
#	104657
#	123477
#	140380
#	167197
#	192965
#	222505
#
# Disc length: 4281 seconds
#
# Revision: 1
# Processed by: cddbd v1.5.2PL0 Copyright (c) Steve Scherf et al.
# Submitted via: CDex 1.51
#
DISCID=970fe20a
DTITLE=Damien Rice - 9
DYEAR=2006
DGENRE=Blues
TTITLE0=9 crimes
TTITLE1=the animals were gone
TTITLE2=elephant
TTITLE3=rootless tree
TTITLE4=dogs
TTITLE5=coconut skins
TTITLE6=me, my yoke and i
TTITLE7=grey room
TTITLE8=accidential babies
TTITLE9=sleep don't weep
EXTD=YEAR: 2006
EXTT0=
EXTT1=
EXTT2=
EXTT3=
EXTT4=
EXTT5=
EXTT6=
EXTT7=
EXTT8=
EXTT9=
PLAYORDER=
